PathFileType	4	(X/Y/Z)	C:/Users/beibeiliu/ov580/test_trc\sequence.5_training_dense_left.trc
DataRate	CameraRate	NumFrames	NumMarkers	Units	OrigDataRate	OrigDataStartFrame	OrigNumFrames
120	120	24	19	mm	120	211	336
Frame#	Time	ThumbCMC			ThumbMCP			ThumbIP			ThumbTip			IndexMCP			IndexPIP			IndexTip			MiddleMCP			MiddlePIP			MiddleTip			RingMCP			RingPIP			RingTip			PinkyMCP			PinkyPIP			PinkyTip			BackHand1			BackHand2			BackHand3	
		X0	Y0	Z0	X1	Y1	Z1	X2	Y2	Z2	X3	Y3	Z3	X4	Y4	Z4	X5	Y5	Z5	X6	Y6	Z6	X7	Y7	Z7	X8	Y8	Z8	X9	Y9	Z9	X10	Y10	Z10	X11	Y11	Z11	X12	Y12	Z12	X13	Y13	Z13	X14	Y14	Z14	X15	Y15	Z15	X16	Y16	Z16	X17	Y17	Z17	X18	Y18	Z18	
210	1.75	-201.335	33.279	17.5215	-177.983	37.1952	-0.572957	-167.41	34.07	-23.0521	-155.145	26.1189	-43.374	-213.147	33.6654	-46.5457	-204.408	36.1906	-70.2762	-193.471	32.5793	-87.8823	-195.079	10.0625	-48.7969	-167.777	11.7986	-48.6424	-163.314	10.5756	-12.2908	-187.613	-8.49403	-38.3136	-165.404	0.712738	-29.2013	-168.306	5.63632	-1.41883	-186.864	-24.6232	-29.0462	-166.445	-12.1453	-16.154	-176.445	0.885501	3.81748	-226.704	-9.19485	-0.483433	-227.594	-12.8287	26.7227	-227.799	15.4427	9.6288	
211	1.75833	-201.776	31.3676	18.7904	-179.243	36.8006	-3.67029	-165.115	37.1866	-24.0303	-155.164	28.6091	-38.7551	-215.083	33.6755	-46.9922	-210.138	33.5138	-67.5279	-203.677	33.3452	-92.1304	-195.349	8.61604	-48.1163	-166.529	12.2023	-48.9997	-160.938	11.1279	-13.2467	-183.425	-7.52898	-39.9767	-161.034	1.5032	-26.1204	-168.039	6.58438	1.50671	-182.243	-21.1211	-29.7851	-166.301	-10.4565	-18.0849	-173.536	2.83123	2.3596	-224.731	-13.0343	-4.62981	-227.367	-13.8791	21.7203	-229.767	17.2462	9.72547	
212	1.76667	-202.329	36.63	18.3791	-178.298	42.7731	0.519348	-166.708	38.2327	-23.5389	-155.565	29.8811	-38.7395	-215.39	32.0369	-46.0267	-213.383	34.7771	-66.2052	-210.605	36.5136	-89.1733	-196.162	13.5347	-46.0131	-164.922	10.4038	-47.4151	-158.447	15.2495	-15.4213	-185.941	-5.75659	-38.7418	-161.314	3.59055	-25.3773	-164.457	7.62743	-2.08153	-186.252	-20.9729	-27.2554	-164.994	-9.13152	-17.7867	-171.702	-0.233165	3.98993	-222.881	-13.8973	-2.65691	-228.523	-14.6499	24.559	-227.046	11.4856	8.59581	
213	1.775	-204.724	31.2435	20.8566	-178.838	42.7988	0.688627	-169.376	38.3349	-21.8834	-155.108	32.6159	-42.7291	-216.02	29.9487	-47.3977	-214.451	35.0436	-65.9219	-212.82	33.0018	-85.5708	-191.072	11.7981	-48.9677	-165.043	14.1578	-48.6263	-155.693	13.1853	-16.7577	-184.802	-6.60165	-37.9426	-160.297	4.10353	-26.4245	-163.694	10.8728	-2.12467	-182.326	-18.9764	-26.9303	-164.491	-5.32422	-16.5597	-171.714	4.43159	7.09582	-221.902	-14.8851	-3.57572	-226.237	-15.3902	23.4007	-228.116	14.0147	11.8121	
214	1.78333	-205.692	33.0685	20.4751	-181.657	42.202	-1.50996	-169.357	40.7353	-21.5824	-156.775	35.6231	-36.5177	-216.312	31.8816	-46.003	-213.004	33.4748	-65.5312	-212.036	38.3761	-88.7369	-193.422	13.6011	-46.3589	-161.784	21.4544	-45.1549	-155.724	21.6109	-14.5988	-182.245	-5.43389	-36.9515	-158.934	4.49022	-27.1561	-164.63	10.55	1.57346	-179.336	-18.14	-26.9165	-161.486	-3.74927	-13.628	-171.135	5.62184	9.35445	-221.73	-12.542	-6.03425	-225.448	-13.6179	22.3494	-229.897	10.6096	9.40702	
215	1.79167	-206.056	32.2446	19.0567	-183.656	44.7744	1.54719	-169.951	45.4392	-18.4851	-157.235	41.7872	-32.9154	-214.412	31.253	-41.0216	-211.703	36.0818	-63.5851	-207.282	41.0316	-84.86	-188.802	15.1263	-47.3931	-163.333	23.8947	-46.3346	-155.952	25.2795	-11.2569	-177.204	1.95644	-38.2573	-156.783	8.07941	-24.1649	-163.752	16.5066	1.28879	-173.575	-15.1434	-26.9037	-159.597	-0.514524	-15.1214	-170.152	9.72527	9.00923	-217.056	-13.5614	-5.452	-226.482	-13.3249	22.9175	-229.344	11.5756	6.46636	
216	1.8	-209.637	31.7045	24.6261	-186.012	46.0121	2.18695	-173.187	50.6069	-13.96	-159.386	46.5703	-32.7296	-214	34.1972	-41.4871	-206.213	41.4063	-66.4204	-198.154	48.7984	-83.4759	-191.042	21.683	-43.7151	-160.064	31.751	-41.1417	-157.142	27.3515	-8.58192	-178.806	4.13628	-34.1408	-156.378	15.0369	-20.0626	-166.964	20.1578	5.7465	-172.633	-8.34804	-26.1903	-158.165	4.57038	-13.2687	-171.485	13.6186	9.57442	-217.098	-10.2906	-5.95382	-221.968	-17.3696	19.5821	-228.053	9.31707	7.85143	
217	1.80833	-212.688	35.2809	21.7462	-190.407	48.8394	4.61845	-177.476	53.2506	-9.4635	-163.267	51.0637	-27.7142	-210.679	36.8388	-41.9585	-199.593	43.8299	-60.3089	-180.82	58.099	-73.6419	-184.938	24.8333	-44.0888	-160.525	36.8103	-37.1197	-158.587	34.1525	-4.30989	-172.398	9.78353	-31.8658	-155.013	19.6495	-16.3293	-171.093	23.398	9.97773	-170.228	-6.37726	-21.5386	-154.683	7.45911	-7.40934	-174.306	12.7893	12.5867	-213.998	-11.3563	-5.82628	-219.793	-18.0461	21.4486	-227.672	6.79115	7.57269	
218	1.81667	-215.155	32.5263	22.3931	-195.054	49.2945	9.27292	-181.31	55.1712	-9.66762	-164.142	55.9433	-25.5277	-204.613	36.0079	-39.2878	-187.445	46.914	-54.193	-164.143	63.3015	-55.3057	-181.646	24.2721	-41.1655	-158.897	37.3368	-32.2872	-163.227	35.791	1.8754	-170.675	9.59011	-27.9237	-156.085	26.9604	-9.7694	-169.79	23.1102	11.6406	-165.404	-6.01076	-18.0174	-156.929	15.1592	-3.34564	-175.945	14.8471	15.6238	-209.795	-12.9327	-4.42795	-218.109	-21.7143	19.2181	-228.458	2.73701	8.71807	
219	1.825	-216.447	29.9632	22.9143	-197.755	51.0225	9.57546	-181.967	56.8268	-11.9477	-165.8	56.8217	-21.7491	-199.782	35.9332	-37.9576	-177.984	48.322	-48.176	-154.726	66.7209	-37.9937	-179.989	24.6132	-36.7846	-156.061	38.8815	-27.5951	-164.472	35.9364	4.90341	-163.993	14.7318	-25.1977	-156.463	29.5895	-8.14585	-173.905	23.3665	15.6906	-163.172	0.582211	-15.2386	-152.766	15.3236	0.666265	-174.291	15.9262	14.8035	-203.311	-13.7085	-3.80474	-216.689	-21.4715	18.9464	-223.977	1.32441	5.48987	
220	1.83333	-217.828	30.0479	23.0521	-198.584	50.3524	8.99394	-183.124	59.7284	-7.46024	-164.384	56.5046	-22.6413	-195.087	34.8558	-37.2231	-173.343	52.3531	-43.7846	-156.328	67.8539	-34.1951	-179.788	26.4121	-35.2333	-157.357	44.7288	-23.6036	-170.667	38.4265	7.57427	-161.087	15.9381	-23.8292	-153.635	29.0934	-3.58438	-173.002	24.399	15.4419	-154.476	3.03437	-12.8896	-152.507	18.7889	3.35226	-177.584	15.0765	15.8296	-197.372	-16.191	-4.54522	-211.977	-19.6431	18.2144	-223.17	1.5643	4.25433	
221	1.84167	-218.761	29.8438	22.0049	-198.096	51.2188	6.65229	-181.449	59.0417	-10.6024	-161.943	58.7105	-22.999	-194.351	32.5782	-37.9029	-175.432	49.6971	-45.8723	-156.375	68.162	-35.4209	-177.33	27.4852	-36.7207	-155.691	43.4209	-20.7395	-172.519	35.7559	8.17313	-162.841	17.6812	-23.171	-155.114	31.848	-1.79071	-174.996	22.3704	17.5688	-155.943	6.52819	-12.3848	-153.167	20.465	5.98937	-175.878	13.01	19.4523	-196.242	-14.2947	-5.13838	-209.908	-26.3546	21.9928	-222.469	0.707984	2.59585	
222	1.85	-217.607	27.0849	20.0951	-198.01	50.1166	5.05463	-182.173	58.9124	-11.9987	-159.761	57.2608	-24.1836	-198.054	31.0761	-39.6908	-180.799	48.4269	-50.932	-162.14	67.5445	-46.4669	-177.27	25.3312	-35.6277	-157.961	45.9851	-19.5045	-173.837	34.6982	7.57785	-161.323	19.6635	-23.2533	-154.573	33.583	-2.13275	-172.551	23.7563	17.888	-156.157	2.91876	-10.8809	-154.24	21.6354	9.14872	-176.495	12.3931	20.4716	-192.709	-17.1777	-4.94154	-207.3	-23.657	20.4435	-218.563	-4.57002	5.91469	
223	1.85833	-219.259	26.3783	19.0302	-200.804	47.7934	9.42814	-184.619	54.1866	-8.23709	-163.207	59.9445	-21.967	-198.706	28.0984	-42.1013	-182.561	41.8886	-56.4311	-164.233	62.3705	-59.0729	-172.491	24.7344	-34.8407	-159.022	46.8626	-21.0164	-176.441	36.8133	8.06225	-162.34	18.8701	-22.8723	-157.064	34.98	-0.105832	-173.804	26.7959	16.3062	-153.709	9.15676	-11.0183	-156.274	24.4904	6.46688	-176.395	14.1725	20.5513	-194.517	-16.983	-5.36802	-202.878	-28.5553	17.9007	-216.124	-5.82302	4.86652	
224	1.86667	-217.993	23.2807	18.4736	-199.79	44.1358	4.56538	-186.44	59.1258	-7.81619	-164.979	61.0394	-20.9001	-200.575	24.7789	-43.6694	-186.769	37.8515	-61.6965	-173.77	57.2193	-71.5121	-171.946	26.0279	-35.4757	-158.211	45.8718	-17.8523	-177.599	38.1366	7.5221	-161.981	15.8386	-20.6241	-155.9	35.7655	1.20115	-175.405	27.2602	17.2549	-150.454	7.99578	-9.7125	-152.909	24.6855	8.78173	-177.266	15.655	21.3721	-190.084	-20.2993	-2.01506	-203.382	-29.4948	21.0078	-217.93	-6.41598	2.76659	
225	1.875	-220.217	23.0564	19.1947	-204.622	47.3967	6.82323	-188.96	53.2916	-5.50771	-165.141	59.2927	-22.5971	-199.792	21.8432	-45.4078	-193.08	35.1106	-63.5281	-180.43	43.5465	-77.101	-176.787	23.5263	-34.4444	-158.491	44.9376	-20.3256	-174.797	38.8387	6.58732	-157.838	19.3614	-20.2924	-160.122	38.4355	-1.16544	-174.477	27.4803	18.068	-153.358	10.2477	-9.02706	-154.876	25.6176	8.05189	-176.181	16.1735	23.0787	-189.916	-21.1115	-1.1315	-201.452	-28.0731	24.9874	-216.346	-8.03628	5.18852	
226	1.88333	-220.328	21.7842	18.8622	-202.742	42.5339	6.75513	-188.798	57.3333	-9.97628	-166.629	58.2199	-22.4169	-201.391	20.2218	-41.6673	-194.531	29.9549	-62.871	-187.69	38.652	-79.8305	-174.97	25.1757	-33.9326	-161.219	47.8422	-17.6092	-177.341	39.0694	7.93316	-161.184	21.5415	-19.6873	-158.125	37.2472	0.886641	-178.538	26.4924	18.7969	-149.436	10.71	-7.28657	-153.815	26.3496	10.8407	-175.585	19.4403	20.1494	-184.445	-21.0637	-1.61317	-200.8	-27.7585	22.486	-214.261	-11.645	7.58416	
227	1.89167	-218.623	17.7558	21.464	-205.029	41.3008	7.32935	-189.817	53.018	-7.24149	-169.34	57.8818	-19.8858	-200.987	19.821	-40.0098	-197.05	29.3775	-59.4862	-189.035	39.7513	-81.191	-175.529	27.4253	-33.0685	-163.683	51.5631	-16.808	-178.388	41.0941	9.84276	-156.604	22.9634	-17.8122	-160.878	41.1757	2.6984	-178.46	26.4713	21.0809	-152.136	10.0785	-6.10265	-152.486	28.4808	9.56062	-173.535	20.8702	25.5748	-186.841	-19.1976	-3.30992	-196.241	-28.2646	23.7376	-215.727	-10.8803	3.75858	
228	1.9	-220.409	17.1357	21.0126	-207.688	41.617	10.218	-192.053	54.1926	-4.41836	-172.225	65.2955	-18.6478	-197.754	21.4726	-42.5016	-194.331	31.2768	-59.4247	-189.537	44.372	-81.2723	-173.309	29.8073	-31.7093	-163.352	52.0794	-14.9505	-176.126	41.4511	10.3781	-157.052	20.7846	-15.0268	-162.152	43.1253	3.40915	-177.367	32.1334	20.295	-148.874	12.5389	-3.31734	-156.279	32.0879	15.0755	-177.441	19.4494	21.6222	-181.935	-19.1182	-0.30001	-195.821	-28.6077	22.7657	-213.693	-11.6445	6.48307	
229	1.90833	-218.668	15.9529	20.675	-209.028	42.7952	11.4239	-193.634	55.6085	-2.97547	-171.246	65.5251	-17.3778	-201.381	23.6189	-40.0347	-194.019	36.4131	-58.7005	-185.455	51.7601	-73.6327	-175.631	29.8682	-29.5406	-166.367	56.6504	-12.0771	-176.335	42.7896	12.4178	-156.629	27.0999	-14.8662	-160.075	43.999	6.89704	-178.074	27.4752	23.5255	-148.359	20.3067	-1.80811	-154.192	34.302	13.2036	-176.16	20.534	27.0965	-181.424	-15.6563	1.47194	-190.887	-29.1025	24.4821	-207.032	-12.1158	3.98253	
230	1.91667	-219.379	16.4745	22.0185	-206.296	43.0691	9.02961	-192.909	57.3905	-2.11029	-171.334	65.9529	-13.084	-197.729	25.4642	-37.2747	-187.212	44.8036	-55.3919	-175.611	66.9497	-61.62	-169.356	30.9919	-27.2738	-165.711	58.1578	-10.8532	-181.9	41.7347	14.6288	-159.914	30.461	-13.1022	-157.964	46.2455	7.80828	-179.022	32.9285	22.7245	-146.652	19.7563	0.416757	-158.264	36.2217	18.0071	-176.282	18.8886	26.717	-178.131	-14.9453	-0.498578	-192.094	-24.4457	21.7059	-206.691	-12.3462	5.34042	
231	1.925	-216.524	16.7469	21.3663	-207.736	47.0168	11.0994	-191.413	58.761	-0.288877	-171.475	69.2842	-8.23628	-194.551	32.9327	-35.7674	-182.867	53.6846	-45.1828	-166.407	78.6235	-35.2232	-172.183	37.3262	-25.4656	-166.33	58.1503	-4.72013	-181.409	40.4584	17.5843	-156.84	31.879	-10.5057	-157.36	45.4149	11.6088	-177.104	29.8425	24.6707	-149.43	18.9753	1.34558	-156.07	35.6299	18.5036	-173.815	22.5268	29.0523	-178.984	-14.4411	0.775352	-190.419	-26.6993	22.5777	-206.425	-10.8792	6.20541	
232	1.93333	-216.172	16.8134	23.3738	-203.085	42.4872	14.1193	-190.253	58.5781	3.30964	-171.271	67.3438	-3.53081	-188.411	36.9999	-31.389	-178.194	60.6376	-32.912	-169.287	79.1234	-15.3732	-166.475	36.854	-22.1381	-164.134	58.235	-1.49484	-176.862	42.0999	20.2408	-151.667	31.579	-7.05051	-159.28	45.5004	12.5458	-176.427	26.9478	26.6144	-147.397	22.4704	3.29609	-154.111	33.492	23.6497	-174.725	16.3704	29.6839	-179.338	-14.8654	4.78295	-188.646	-27.4182	24.7167	-207.088	-12.4141	9.79708	
233	1.94167	-215.47	12.9933	28.3135	-204.966	40.9202	17.4733	-191.392	58.1674	6.6767	-165.274	64.9296	-5.35614	-187.769	37.7582	-25.5557	-174.376	63.6659	-23.4525	-166.722	77.5407	-0.350475	-168.053	34.8471	-18.9014	-160.234	57.0153	-1.62719	-176.376	37.7175	23.6862	-155.584	28.0503	-6.93615	-154.605	43.8876	16.3237	-177.057	24.5849	28.0931	-145.603	20.153	5.32637	-155.491	32.7435	25.3809	-169.737	16.331	32.524	-172.391	-17.1279	4.38102	-186.133	-29.4717	25.1838	-202.296	-11.5793	6.40421	
